<?xml version="1.0" encoding="UTF-8"?>
<svg id="Layer_1" data-name="Layer 1" xmlns="http://www.w3.org/2000/svg" viewBox="0 0 500 500">
  <defs>
    <style>
      .cls-1 {
        stroke: #000;
        stroke-miterlimit: 10;
        stroke-width: 4px;
      }
    </style>
  </defs>
  <path class="cls-1" d="M347.4,221.99v20.71h-41.42v20.71h-1.03c.03.17.07.36.1.54l.93-.54h41.42v20.71h-41.42v41.41h-20.71v-10.35c-6.01,4.53-13.05,7.76-20.71,9.32-3.35.68-6.81,1.03-10.35,1.03s-7.01-.36-10.36-1.03c-.55-.12-1.1-.23-1.64-.36-7.01-1.67-13.48-4.76-19.06-8.95v-27.86l.61-.36c-.22-.52-.42-1.04-.61-1.57v-21.99l20.71-11.95v54.14c3.25,1.07,6.74,1.66,10.36,1.66s7.09-.58,10.35-1.66c.71-.23,1.42-.5,2.11-.78,8.64-3.53,15.45-10.61,18.6-19.43.15-.42.3-.85.43-1.28h-.43v-20.71h.09c-.02-.09-.06-.18-.09-.26-1.16-3.23-2.8-6.22-4.85-8.89-3.98-5.22-9.49-9.22-15.86-11.32v-.24h-62.12v82.83h-20.71v-82.83h-41.41v-20.71h113.15-.02,93.95Z"/>
</svg>